<svg width="14" height="14" viewBox="0 0 14 14" fill="none" xmlns="http://www.w3.org/2000/svg">
<path d="M13.0463 8.70174C12.3352 8.1571 11.6828 7.89233 11.052 7.89233C10.1394 7.89233 9.48232 8.44556 8.88742 9.0123C8.81901 9.07754 8.73617 9.10795 8.62678 9.10795C8.12549 9.108 7.2436 8.50973 6.00561 7.32982C4.54919 5.94178 3.99853 5.05896 4.3688 4.70596C5.37256 3.74972 5.68592 2.79112 4.1491 0.969703C3.59893 0.317151 3.06065 0 2.50352 0C1.75216 0 1.18099 0.572358 0.677068 1.07739C0.589946 1.16468 0.507647 1.24715 0.426957 1.32405C-0.142603 1.86678 -0.142311 3.0506 0.427785 4.49092C1.05328 6.07124 2.28829 7.79036 3.90537 9.33163C5.15593 10.5233 6.5166 11.4864 7.84039 12.133C8.99613 12.6975 10.1172 13 10.997 13C10.9971 13 10.9972 13 10.9974 13C11.548 13 11.9952 12.8855 12.2906 12.6528C12.8906 12.18 14.0074 11.3043 14 10.2642C13.9959 9.70632 13.6751 9.18351 13.0463 8.70174Z" fill="#EF7F1B"/>
</svg>
