<svg width="24" height="24" viewBox="0 0 24 24" fill="none" xmlns="http://www.w3.org/2000/svg">
<g clip-path="url(#clip0_43_249)">
<path d="M23.987 2.32288C24.004 1.67388 23.735 1.04588 23.25 0.600878C22.76 0.152878 22.103 -0.0621217 21.448 0.0148783C15.792 0.668878 13.192 4.44988 12 7.58488C10.808 4.44988 8.208 0.668878 2.552 0.0148783C1.902 -0.0611217 1.24 0.152878 0.749997 0.600878C0.264997 1.04588 -0.00400274 1.67388 0.0129973 2.32288C0.0999973 5.59288 1.169 8.18988 3.192 10.0429C5.799 12.4309 9.274 12.9059 11.001 12.9859V22.9999C11.001 23.5519 11.448 23.9999 12.001 23.9999C12.554 23.9999 13.001 23.5519 13.001 22.9999V12.9859C14.728 12.9059 18.203 12.4309 20.81 10.0429C22.832 8.18988 23.902 5.59288 23.989 2.32288H23.987Z" fill="#049747"/>
</g>
<defs>
<clipPath id="clip0_43_249">
<rect width="24" height="24" fill="white"/>
</clipPath>
</defs>
</svg>
